<?xml version="1.0" encoding="UTF-8" standalone="no"?>
<!DOCTYPE svg PUBLIC "-//W3C//DTD SVG 1.1//EN"
 "http://www.w3.org/Graphics/SVG/1.1/DTD/svg11.dtd">
<!-- Generated by graphviz version 2.40.1 (20161225.0304)
 -->
<!-- Title: conda_concepts Pages: 1 -->
<svg width="426pt" height="467pt"
 viewBox="0.00 0.00 426.33 467.00" xmlns="http://www.w3.org/2000/svg" xmlns:xlink="http://www.w3.org/1999/xlink">
<g id="graph0" class="graph" transform="scale(1 1) rotate(0) translate(4 463)">
<title>conda_concepts</title>
<polygon fill="#ffffff" stroke="transparent" points="-4,4 -4,-463 422.3311,-463 422.3311,4 -4,4"/>
<!-- history -->
<g id="node1" class="node">
<title>history</title>
<polygon fill="none" stroke="#000000" points="247.3898,-373 192.6102,-373 192.6102,-337 247.3898,-337 247.3898,-373"/>
<text text-anchor="middle" x="220" y="-350.8" font-family="Times,serif" font-size="14.00" fill="#000000">history</text>
</g>
<!-- command -->
<g id="node4" class="node">
<title>command</title>
<polygon fill="none" stroke="#000000" points="155.7073,-273 84.2927,-273 84.2927,-237 155.7073,-237 155.7073,-273"/>
<text text-anchor="middle" x="120" y="-250.8" font-family="Times,serif" font-size="14.00" fill="#000000">command</text>
</g>
<!-- history&#45;&gt;command -->
<g id="edge7" class="edge">
<title>history&#45;&gt;command</title>
<path fill="none" stroke="#000000" d="M217.6748,-336.7556C215.0384,-322.7548 209.4999,-303.7283 198,-291 189.1638,-281.2199 177.1328,-273.9021 165.1659,-268.512"/>
<polygon fill="#000000" stroke="#000000" points="166.2242,-265.1627 155.6447,-264.5923 163.5594,-271.6357 166.2242,-265.1627"/>
<text text-anchor="middle" x="233.6001" y="-300.8" font-family="Times,serif" font-size="14.00" fill="#000000">records</text>
</g>
<!-- pipe -->
<g id="node2" class="node">
<title>pipe</title>
<polygon fill="none" stroke="#000000" points="54,-159 0,-159 0,-123 54,-123 54,-159"/>
<text text-anchor="middle" x="27" y="-136.8" font-family="Times,serif" font-size="14.00" fill="#000000">pipe</text>
</g>
<!-- loop -->
<g id="node3" class="node">
<title>loop</title>
<polygon fill="none" stroke="#000000" points="126,-159 72,-159 72,-123 126,-123 126,-159"/>
<text text-anchor="middle" x="99" y="-136.8" font-family="Times,serif" font-size="14.00" fill="#000000">loop</text>
</g>
<!-- script -->
<g id="node7" class="node">
<title>script</title>
<polygon fill="none" stroke="#000000" points="216,-159 162,-159 162,-123 216,-123 216,-159"/>
<text text-anchor="middle" x="189" y="-136.8" font-family="Times,serif" font-size="14.00" fill="#000000">script</text>
</g>
<!-- loop&#45;&gt;script -->
<!-- command&#45;&gt;history -->
<g id="edge10" class="edge">
<title>command&#45;&gt;history</title>
<path fill="none" stroke="#000000" d="M123.847,-273.2038C127.6052,-287.1823 134.563,-306.1984 146.5928,-319 156.43,-329.4683 169.9616,-337.286 182.7293,-342.9128"/>
<polygon fill="#000000" stroke="#000000" points="181.6884,-346.2679 192.2701,-346.7962 184.3274,-339.7844 181.6884,-346.2679"/>
<text text-anchor="middle" x="170.7036" y="-307.8" font-family="Times,serif" font-size="14.00" fill="#000000">repeated</text>
<text text-anchor="middle" x="170.7036" y="-293.8" font-family="Times,serif" font-size="14.00" fill="#000000">using</text>
</g>
<!-- command&#45;&gt;pipe -->
<g id="edge8" class="edge">
<title>command&#45;&gt;pipe</title>
<path fill="none" stroke="#000000" d="M84.1673,-244.5747C70.6902,-238.9936 56.3355,-230.7729 46.793,-219 35.3911,-204.933 30.461,-185.1165 28.3721,-168.9779"/>
<polygon fill="#000000" stroke="#000000" points="31.852,-168.6013 27.3702,-159.0011 24.887,-169.3008 31.852,-168.6013"/>
<text text-anchor="middle" x="74.6035" y="-200.8" font-family="Times,serif" font-size="14.00" fill="#000000">combined</text>
<text text-anchor="middle" x="74.6035" y="-186.8" font-family="Times,serif" font-size="14.00" fill="#000000">using</text>
</g>
<!-- command&#45;&gt;loop -->
<g id="edge9" class="edge">
<title>command&#45;&gt;loop</title>
<path fill="none" stroke="#000000" d="M116.6725,-236.9364C113.3284,-218.7827 108.125,-190.536 104.229,-169.3859"/>
<polygon fill="#000000" stroke="#000000" points="107.6353,-168.5571 102.3815,-159.3566 100.7511,-169.8253 107.6353,-168.5571"/>
<text text-anchor="middle" x="137.7036" y="-200.8" font-family="Times,serif" font-size="14.00" fill="#000000">repeated</text>
<text text-anchor="middle" x="137.7036" y="-186.8" font-family="Times,serif" font-size="14.00" fill="#000000">using</text>
</g>
<!-- command&#45;&gt;script -->
<g id="edge11" class="edge">
<title>command&#45;&gt;script</title>
<path fill="none" stroke="#000000" d="M148.1802,-236.734C154.4161,-231.6156 160.4987,-225.6182 165,-219 175.0996,-204.1509 181.0816,-184.8849 184.5476,-169.2159"/>
<polygon fill="#000000" stroke="#000000" points="188.0531,-169.531 186.5648,-159.0412 181.1868,-168.1696 188.0531,-169.531"/>
<text text-anchor="middle" x="200.1069" y="-200.8" font-family="Times,serif" font-size="14.00" fill="#000000">stored</text>
<text text-anchor="middle" x="200.1069" y="-186.8" font-family="Times,serif" font-size="14.00" fill="#000000">in</text>
</g>
<!-- shell -->
<g id="node5" class="node">
<title>shell</title>
<polygon fill="none" stroke="#000000" points="283,-459 229,-459 229,-423 283,-423 283,-459"/>
<text text-anchor="middle" x="256" y="-436.8" font-family="Times,serif" font-size="14.00" fill="#000000">shell</text>
</g>
<!-- shell&#45;&gt;history -->
<g id="edge4" class="edge">
<title>shell&#45;&gt;history</title>
<path fill="none" stroke="#000000" d="M239.504,-422.63C235.4411,-417.2662 231.489,-411.1767 228.7998,-405 225.8344,-398.189 223.8678,-390.4433 222.5637,-383.1165"/>
<polygon fill="#000000" stroke="#000000" points="226.0219,-382.5748 221.1262,-373.1789 219.094,-383.5769 226.0219,-382.5748"/>
<text text-anchor="middle" x="249.6001" y="-393.8" font-family="Times,serif" font-size="14.00" fill="#000000">records</text>
</g>
<!-- shell&#45;&gt;command -->
<g id="edge2" class="edge">
<title>shell&#45;&gt;command</title>
<path fill="none" stroke="#000000" d="M228.9529,-426.5172C208.121,-414.3447 179.6376,-395.3735 159.8896,-373 141.8777,-352.5933 139.8389,-344.7437 131,-319 127.0881,-307.6064 124.5254,-294.5742 122.8672,-283.2563"/>
<polygon fill="#000000" stroke="#000000" points="126.2991,-282.5055 121.5399,-273.0398 119.3575,-283.4074 126.2991,-282.5055"/>
<text text-anchor="middle" x="172.0552" y="-350.8" font-family="Times,serif" font-size="14.00" fill="#000000">runs</text>
</g>
<!-- program -->
<g id="node6" class="node">
<title>program</title>
<polygon fill="none" stroke="#000000" points="315.9292,-159 252.0708,-159 252.0708,-123 315.9292,-123 315.9292,-159"/>
<text text-anchor="middle" x="284" y="-136.8" font-family="Times,serif" font-size="14.00" fill="#000000">program</text>
</g>
<!-- shell&#45;&gt;program -->
<g id="edge3" class="edge">
<title>shell&#45;&gt;program</title>
<path fill="none" stroke="#000000" d="M264.4242,-422.6626C266.6232,-417.1015 268.7304,-410.9003 270,-405 288.1313,-320.734 287.195,-218.0305 285.4092,-169.2874"/>
<polygon fill="#000000" stroke="#000000" points="288.9019,-169.0344 284.9973,-159.1853 281.9077,-169.3196 288.9019,-169.0344"/>
<text text-anchor="middle" x="297.0552" y="-300.8" font-family="Times,serif" font-size="14.00" fill="#000000">runs</text>
</g>
<!-- wildcard -->
<g id="node12" class="node">
<title>wildcard</title>
<polygon fill="none" stroke="#000000" points="380.4795,-373 315.5205,-373 315.5205,-337 380.4795,-337 380.4795,-373"/>
<text text-anchor="middle" x="348" y="-350.8" font-family="Times,serif" font-size="14.00" fill="#000000">wildcard</text>
</g>
<!-- shell&#45;&gt;wildcard -->
<g id="edge5" class="edge">
<title>shell&#45;&gt;wildcard</title>
<path fill="none" stroke="#000000" d="M277.6442,-422.9976C284.2697,-417.341 291.5173,-411.0032 298,-405 306.2417,-397.368 314.9794,-388.8041 322.8056,-380.9496"/>
<polygon fill="#000000" stroke="#000000" points="325.7351,-382.9646 330.2759,-373.3922 320.7567,-378.0436 325.7351,-382.9646"/>
<text text-anchor="middle" x="335.938" y="-393.8" font-family="Times,serif" font-size="14.00" fill="#000000">expands</text>
</g>
<!-- i01 -->
<g id="node13" class="node">
<title>i01</title>
<ellipse fill="#000000" stroke="#000000" cx="288" cy="-73" rx="0" ry="0"/>
</g>
<!-- program&#45;&gt;i01 -->
<g id="edge13" class="edge">
<title>program&#45;&gt;i01</title>
<path fill="none" stroke="#000000" d="M282.5559,-122.8796C282.1015,-113.3548 282.0168,-101.5067 283.3516,-91 284.3278,-83.3157 287.5591,-74.2192 287.9592,-73.1121"/>
<text text-anchor="middle" x="317.8242" y="-93.8" font-family="Times,serif" font-size="14.00" fill="#000000">manipulates</text>
</g>
<!-- script&#45;&gt;program -->
<g id="edge12" class="edge">
<title>script&#45;&gt;program</title>
<path fill="none" stroke="#000000" d="M216.2232,-141C224.2625,-141 233.2557,-141 241.9972,-141"/>
<polygon fill="#000000" stroke="#000000" points="242.0711,-144.5001 252.0711,-141 242.0711,-137.5001 242.0711,-144.5001"/>
<text text-anchor="middle" x="234.1431" y="-146.8" font-family="Times,serif" font-size="14.00" fill="#000000">is a</text>
</g>
<!-- file -->
<g id="node8" class="node">
<title>file</title>
<polygon fill="none" stroke="#000000" points="315,-36 261,-36 261,0 315,0 315,-36"/>
<text text-anchor="middle" x="288" y="-13.8" font-family="Times,serif" font-size="14.00" fill="#000000">file</text>
</g>
<!-- directory -->
<g id="node9" class="node">
<title>directory</title>
<polygon fill="none" stroke="#000000" points="399.0329,-36 332.9671,-36 332.9671,0 399.0329,0 399.0329,-36"/>
<text text-anchor="middle" x="366" y="-13.8" font-family="Times,serif" font-size="14.00" fill="#000000">directory</text>
</g>
<!-- filesystem -->
<g id="node10" class="node">
<title>filesystem</title>
<polygon fill="none" stroke="#000000" points="408.2796,-159 335.7204,-159 335.7204,-123 408.2796,-123 408.2796,-159"/>
<text text-anchor="middle" x="372" y="-136.8" font-family="Times,serif" font-size="14.00" fill="#000000">filesystem</text>
</g>
<!-- i02 -->
<g id="node14" class="node">
<title>i02</title>
<ellipse fill="#000000" stroke="#000000" cx="366" cy="-73" rx="0" ry="0"/>
</g>
<!-- filesystem&#45;&gt;i02 -->
<g id="edge16" class="edge">
<title>filesystem&#45;&gt;i02</title>
<path fill="none" stroke="#000000" d="M370.3921,-122.7772C368.6704,-103.2643 366.1626,-74.8429 366.0076,-73.0856"/>
<text text-anchor="middle" x="391.3276" y="-93.8" font-family="Times,serif" font-size="14.00" fill="#000000">contains</text>
</g>
<!-- path -->
<g id="node11" class="node">
<title>path</title>
<polygon fill="none" stroke="#000000" points="384,-273 330,-273 330,-237 384,-237 384,-273"/>
<text text-anchor="middle" x="357" y="-250.8" font-family="Times,serif" font-size="14.00" fill="#000000">path</text>
</g>
<!-- path&#45;&gt;filesystem -->
<g id="edge19" class="edge">
<title>path&#45;&gt;filesystem</title>
<path fill="none" stroke="#000000" d="M359.3768,-236.9364C361.7654,-218.7827 365.4821,-190.536 368.265,-169.3859"/>
<polygon fill="#000000" stroke="#000000" points="371.7501,-169.7278 369.5847,-159.3566 364.8099,-168.8145 371.7501,-169.7278"/>
<text text-anchor="middle" x="392.6655" y="-207.8" font-family="Times,serif" font-size="14.00" fill="#000000">identifies</text>
<text text-anchor="middle" x="392.6655" y="-193.8" font-family="Times,serif" font-size="14.00" fill="#000000">parts</text>
<text text-anchor="middle" x="392.6655" y="-179.8" font-family="Times,serif" font-size="14.00" fill="#000000">of</text>
</g>
<!-- wildcard&#45;&gt;path -->
<g id="edge6" class="edge">
<title>wildcard&#45;&gt;path</title>
<path fill="none" stroke="#000000" d="M349.6507,-336.6585C350.9955,-321.7164 352.917,-300.3665 354.458,-283.2446"/>
<polygon fill="#000000" stroke="#000000" points="357.9492,-283.4988 355.3597,-273.2253 350.9773,-282.8712 357.9492,-283.4988"/>
<text text-anchor="middle" x="375.9346" y="-300.8" font-family="Times,serif" font-size="14.00" fill="#000000">matches</text>
</g>
<!-- i01&#45;&gt;file -->
<g id="edge14" class="edge">
<title>i01&#45;&gt;file</title>
<path fill="none" stroke="#000000" d="M288,-72.8422C288,-71.3261 288,-59.1219 288,-46.6107"/>
<polygon fill="#000000" stroke="#000000" points="291.5001,-46.2569 288,-36.2569 284.5001,-46.2569 291.5001,-46.2569"/>
</g>
<!-- i01&#45;&gt;directory -->
<g id="edge15" class="edge">
<title>i01&#45;&gt;directory</title>
<path fill="none" stroke="#000000" d="M288.0565,-72.9601C289.3215,-72.0681 311.5896,-56.3663 332,-41.9743"/>
<polygon fill="#000000" stroke="#000000" points="334.1151,-44.7656 340.2708,-36.1424 330.0812,-39.0448 334.1151,-44.7656"/>
</g>
<!-- i02&#45;&gt;file -->
<g id="edge17" class="edge">
<title>i02&#45;&gt;file</title>
<path fill="none" stroke="#000000" d="M365.9435,-72.9601C364.6785,-72.0681 342.4104,-56.3663 322,-41.9743"/>
<polygon fill="#000000" stroke="#000000" points="323.9188,-39.0448 313.7292,-36.1424 319.8849,-44.7656 323.9188,-39.0448"/>
</g>
<!-- i02&#45;&gt;directory -->
<g id="edge18" class="edge">
<title>i02&#45;&gt;directory</title>
<path fill="none" stroke="#000000" d="M366,-72.8422C366,-71.3261 366,-59.1219 366,-46.6107"/>
<polygon fill="#000000" stroke="#000000" points="369.5001,-46.2569 366,-36.2569 362.5001,-46.2569 369.5001,-46.2569"/>
</g>
</g>
</svg>
